<svg xmlns="http://www.w3.org/2000/svg" viewBox="0 0 128 128">
  <defs>
    <linearGradient id="bg" x1="16" y1="12" x2="112" y2="116" gradientUnits="userSpaceOnUse">
      <stop offset="0" stop-color="#123c78"/>
      <stop offset="1" stop-color="#0a1d3f"/>
    </linearGradient>
    <linearGradient id="bubble" x1="20" y1="16" x2="96" y2="102" gradientUnits="userSpaceOnUse">
      <stop offset="0" stop-color="#8ce3ff"/>
      <stop offset="1" stop-color="#35baf5"/>
    </linearGradient>
    <linearGradient id="sheet" x1="28" y1="28" x2="96" y2="100" gradientUnits="userSpaceOnUse">
      <stop offset="0" stop-color="#f4fbff"/>
      <stop offset="1" stop-color="#dff4ff"/>
    </linearGradient>
  </defs>
  <rect x="10" y="10" width="108" height="108" rx="28" fill="url(#bg)"/>
  <circle cx="31" cy="28" r="11" fill="url(#bubble)" opacity="0.9"/>
  <circle cx="97" cy="30" r="8" fill="url(#bubble)" opacity="0.8"/>
  <circle cx="96" cy="91" r="11" fill="url(#bubble)" opacity="0.82"/>
  <rect x="27" y="28" width="74" height="74" rx="18" fill="url(#sheet)" opacity="0.97"/>
  <rect x="27" y="28" width="74" height="18" rx="18" fill="#1a57aa"/>
  <rect x="38" y="20" width="8" height="16" rx="4" fill="#7ad9ff"/>
  <rect x="82" y="20" width="8" height="16" rx="4" fill="#7ad9ff"/>
  <rect x="38" y="56" width="12" height="10" rx="3" fill="#90dfff"/>
  <rect x="56" y="56" width="12" height="10" rx="3" fill="#ccefff"/>
  <rect x="74" y="56" width="12" height="10" rx="3" fill="#ccefff"/>
  <rect x="38" y="72" width="12" height="10" rx="3" fill="#ccefff"/>
  <rect x="56" y="72" width="12" height="10" rx="3" fill="#35baf5"/>
  <rect x="74" y="72" width="12" height="10" rx="3" fill="#ccefff"/>
  <rect x="38" y="88" width="12" height="10" rx="3" fill="#ccefff"/>
  <rect x="56" y="88" width="12" height="10" rx="3" fill="#ccefff"/>
  <rect x="74" y="88" width="12" height="10" rx="3" fill="#90dfff"/>
</svg>
